<?xml version="1.0" standalone="no"?>
<!DOCTYPE svg PUBLIC "-//W3C//DTD SVG 20010904//EN"
 "http://www.w3.org/TR/2001/REC-SVG-20010904/DTD/svg10.dtd">
<svg version="1.0" xmlns="http://www.w3.org/2000/svg"
 width="1024.000000pt" height="1024.000000pt" viewBox="0 0 1024.000000 1024.000000"
 preserveAspectRatio="xMidYMid meet">

<g transform="translate(0.000000,1024.000000) scale(0.100000,-0.100000)"
fill="#000000" stroke="none">
<g fill="#16a34a">
<path d="M5089 8641 c-22 -17 -24 -29 -27 -113 -3 -84 -2 -96 18 -121 32 -41
79 -35 102 13 35 69 17 204 -30 229 -28 15 -36 14 -63 -8z m71 -130 c0 -76 -9
-101 -37 -101 -7 0 -16 12 -20 28 -12 44 -7 160 8 178 12 15 15 14 31 -6 14
-17 18 -40 18 -99z"/>
<path d="M5633 8645 c-31 -22 -46 -87 -38 -160 8 -76 26 -105 65 -105 56 0 70
28 70 135 0 88 -2 98 -25 120 -28 29 -42 31 -72 10z m62 -130 c0 -91 -12 -118
-43 -99 -25 16 -30 174 -6 199 15 15 18 15 33 1 12 -13 16 -37 16 -101z"/>
<path d="M4349 8633 c-15 -17 -25 -156 -15 -197 9 -36 33 -56 66 -56 47 0 65
38 65 135 0 100 -18 135 -69 135 -19 0 -40 -7 -47 -17z m81 -110 c0 -78 -11
-113 -36 -113 -8 0 -19 12 -25 28 -14 36 -7 155 10 176 13 15 15 15 32 0 15
-14 19 -32 19 -91z"/>
<path d="M4540 8635 c0 -8 7 -15 15 -15 13 0 15 -20 15 -120 0 -100 3 -120 15
-120 13 0 15 22 15 135 l0 135 -30 0 c-20 0 -30 -5 -30 -15z"/>
<path d="M4700 8639 c0 -6 9 -13 20 -16 19 -5 20 -14 20 -125 0 -106 2 -119
17 -116 14 3 17 20 17 135 l1 133 -37 0 c-21 0 -38 -5 -38 -11z"/>
<path d="M4886 8628 c-19 -27 -22 -174 -4 -212 13 -29 39 -40 73 -32 38 10 49
42 50 137 0 72 -3 91 -19 108 -26 29 -80 28 -100 -1z m82 -102 c4 -77 -7 -116
-34 -116 -8 0 -19 12 -25 28 -14 34 -6 157 11 177 25 30 44 -6 48 -89z"/>
<path d="M5260 8641 c0 -5 9 -11 20 -14 19 -5 20 -14 20 -126 0 -101 2 -121
15 -121 13 0 15 22 15 135 l0 135 -35 0 c-19 0 -35 -4 -35 -9z"/>
<path d="M5430 8635 c0 -8 9 -15 20 -15 19 0 20 -7 20 -120 0 -100 3 -120 15
-120 13 0 15 22 15 135 l0 135 -35 0 c-24 0 -35 -5 -35 -15z"/>
<path d="M5800 8635 c0 -8 7 -15 15 -15 13 0 15 -20 15 -120 0 -113 1 -120 20
-120 19 0 20 7 20 135 l0 135 -35 0 c-24 0 -35 -5 -35 -15z"/>
<path d="M5974 8615 c-8 -19 -14 -66 -14 -108 0 -60 4 -79 21 -101 30 -38 73
-36 99 7 32 52 24 206 -12 229 -7 4 -28 8 -46 8 -28 0 -35 -5 -48 -35z m80
-11 c11 -29 7 -169 -6 -182 -20 -20 -37 -14 -45 16 -10 33 -10 141 -1 165 9
21 44 22 52 1z"/>
<path d="M6160 8641 c0 -5 9 -13 21 -16 19 -6 20 -14 18 -123 -1 -115 -1 -117
21 -120 18 -3 21 0 16 13 -3 9 -6 70 -6 136 l0 119 -35 0 c-19 0 -35 -4 -35
-9z"/>
<path d="M6330 8639 c0 -6 9 -13 20 -16 19 -5 20 -14 20 -124 0 -99 3 -119 15
-119 13 0 15 22 15 135 l0 135 -35 0 c-19 0 -35 -5 -35 -11z"/>
<path d="M4909 8251 c-21 -17 -24 -29 -27 -108 -4 -113 7 -137 65 -141 32 -2
44 1 51 15 17 31 24 103 17 160 -10 85 -55 116 -106 74z m61 -30 c17 -33 13
-167 -6 -186 -16 -15 -18 -15 -33 0 -17 17 -22 125 -8 178 9 31 32 36 47 8z"/>
<path d="M5277 8258 c-24 -19 -37 -62 -37 -127 0 -102 30 -146 90 -131 39 10
51 44 48 143 -3 79 -6 91 -27 108 -27 22 -50 24 -74 7z m51 -30 c18 -18 16
-182 -2 -197 -11 -9 -18 -8 -30 4 -12 12 -16 36 -16 91 0 97 17 133 48 102z"/>
<path d="M5614 8258 c-7 -11 5 -30 15 -23 13 7 21 -49 21 -146 0 -72 3 -89 15
-89 13 0 15 21 15 129 l0 129 -30 4 c-17 3 -33 1 -36 -4z"/>
<path d="M5812 8263 c-25 -10 -42 -62 -42 -128 0 -82 19 -130 54 -139 61 -15
90 40 84 161 -3 64 -7 78 -27 94 -23 19 -44 22 -69 12z m47 -37 c8 -9 11 -46
9 -103 -3 -86 -3 -88 -28 -88 -25 0 -25 2 -28 88 -3 83 5 117 28 117 4 0 13
-6 19 -14z"/>
<path d="M6161 8251 c-24 -24 -35 -94 -27 -165 8 -58 24 -80 67 -91 21 -5 31
-1 48 21 18 23 21 40 21 114 0 73 -3 92 -21 114 -24 31 -61 34 -88 7z m63 -33
c30 -43 15 -198 -19 -198 -31 0 -48 134 -25 194 12 32 24 33 44 4z"/>
<path d="M6350 8250 c-17 -17 -20 -33 -20 -114 0 -75 4 -98 18 -114 48 -56
104 -24 116 66 10 76 -7 154 -38 174 -20 14 -56 8 -76 -12z m70 -29 c18 -34
13 -156 -8 -181 -16 -20 -19 -21 -31 -6 -18 21 -26 143 -12 179 12 32 36 35
51 8z"/>
<path d="M6536 8263 c-11 -11 -6 -21 11 -25 16 -3 17 -16 14 -121 -3 -113 -2
-117 18 -117 20 0 21 5 21 133 l0 132 -29 2 c-16 1 -31 -1 -35 -4z"/>
<path d="M6719 8251 c-21 -17 -24 -30 -27 -98 -3 -56 1 -90 12 -116 14 -34 18
-37 56 -37 37 0 42 3 56 35 17 41 19 139 3 184 -18 51 -60 65 -100 32z m61
-30 c17 -32 13 -176 -6 -191 -12 -11 -18 -11 -31 3 -20 20 -22 169 -3 192 17
20 27 19 40 -4z"/>
<path d="M5080 8250 c0 -5 9 -10 20 -10 19 0 20 -7 20 -120 0 -100 3 -120 15
-120 13 0 15 21 15 130 l0 130 -35 0 c-19 0 -35 -4 -35 -10z"/>
<path d="M5450 8251 c0 -5 7 -11 15 -15 12 -4 15 -27 15 -121 0 -96 3 -115 15
-115 13 0 15 21 15 130 l0 130 -30 0 c-16 0 -30 -4 -30 -9z"/>
<path d="M5980 8250 c0 -5 7 -10 15 -10 13 0 15 -20 15 -120 0 -95 3 -120 14
-120 17 0 26 63 26 176 l0 84 -35 0 c-19 0 -35 -4 -35 -10z"/>
<path d="M6908 8243 c21 -14 22 -23 22 -129 0 -110 1 -114 21 -114 19 0 21 4
15 31 -3 17 -6 76 -6 130 l0 99 -37 -1 c-37 0 -38 0 -15 -16z"/>
<path d="M5140 7865 c0 -8 7 -15 15 -15 13 0 15 -20 15 -120 0 -113 1 -120 20
-120 19 0 20 7 20 135 l0 135 -35 0 c-24 0 -35 -5 -35 -15z"/>
<path d="M5310 7869 c0 -6 9 -13 20 -16 19 -5 20 -14 20 -124 0 -99 3 -119 15
-119 13 0 15 22 15 135 l0 135 -35 0 c-19 0 -35 -5 -35 -11z"/>
<path d="M5484 7845 c-17 -41 -19 -149 -3 -194 12 -34 42 -47 83 -37 31 8 46
51 46 132 0 65 -13 113 -33 126 -7 4 -27 8 -45 8 -28 0 -35 -5 -48 -35z m81
-18 c3 -12 5 -55 3 -96 -2 -58 -7 -76 -21 -85 -14 -8 -20 -8 -27 4 -14 22 -12
174 2 188 19 19 37 14 43 -11z"/>
<path d="M5680 7865 c0 -8 7 -15 15 -15 13 0 15 -20 15 -120 0 -100 3 -120 15
-120 13 0 15 22 15 135 l0 135 -30 0 c-20 0 -30 -5 -30 -15z"/>
<path d="M5846 7865 c4 -8 12 -15 20 -15 11 0 14 -24 14 -120 0 -100 3 -120
15 -120 13 0 15 22 15 135 l0 135 -35 0 c-26 0 -33 -3 -29 -15z"/>
<path d="M6023 7853 c-25 -38 -25 -178 0 -216 22 -34 68 -36 98 -6 19 19 20
30 17 121 -2 85 -6 102 -22 114 -32 23 -73 18 -93 -13z m77 -29 c6 -14 10 -49
10 -79 0 -64 -14 -105 -35 -105 -9 0 -20 12 -25 26 -13 34 -13 140 0 165 15
27 39 24 50 -7z"/>
<path d="M6210 7865 c0 -8 7 -15 15 -15 13 0 15 -20 15 -120 0 -113 1 -120 20
-120 19 0 20 7 20 135 l0 135 -35 0 c-24 0 -35 -5 -35 -15z"/>
<path d="M6380 7865 c0 -8 7 -15 15 -15 13 0 15 -20 15 -120 0 -113 1 -120 20
-120 19 0 20 7 20 135 l0 135 -35 0 c-24 0 -35 -5 -35 -15z"/>
<path d="M6561 7854 c-17 -22 -21 -41 -21 -109 0 -96 20 -135 69 -135 51 0 66
30 66 135 0 77 -3 96 -19 114 -27 30 -70 27 -95 -5z m79 -106 c0 -73 -11 -108
-35 -108 -34 0 -46 168 -15 205 13 16 16 15 32 -5 13 -17 18 -40 18 -92z"/>
<path d="M6750 7865 c0 -8 7 -15 15 -15 13 0 15 -20 15 -120 0 -108 2 -120 18
-120 15 0 17 12 14 135 l-3 135 -30 0 c-19 0 -29 -5 -29 -15z"/>
<path d="M6920 7865 c0 -8 7 -15 15 -15 13 0 15 -20 15 -120 0 -100 3 -120 15
-120 17 0 18 10 19 162 l1 108 -32 0 c-23 0 -33 -5 -33 -15z"/>
<path d="M7096 7865 c-21 -21 -29 -73 -24 -150 4 -73 25 -105 68 -105 49 0 64
21 68 99 7 124 -12 171 -68 171 -16 0 -35 -7 -44 -15z m73 -52 c20 -69 5 -173
-24 -173 -8 0 -19 9 -25 19 -14 27 -13 164 2 179 21 21 37 13 47 -25z"/>
<path d="M6140 7487 c-44 -22 -63 -125 -40 -209 16 -58 70 -77 105 -38 40 44
37 208 -5 242 -26 21 -28 21 -60 5z m48 -48 c18 -33 11 -154 -9 -175 -15 -14
-18 -14 -33 1 -12 12 -16 35 -16 91 0 107 26 144 58 83z"/>
<path d="M4864 7482 c-24 -16 -34 -54 -34 -130 0 -65 4 -84 21 -106 24 -31 61
-34 88 -7 37 37 41 193 5 232 -17 19 -59 25 -80 11z m50 -28 c23 -23 23 -166
0 -189 -16 -15 -18 -15 -33 0 -21 21 -22 164 -2 189 16 20 16 20 35 0z"/>
<path d="M5030 7475 c0 -10 7 -15 18 -13 15 3 17 -9 20 -114 2 -96 5 -118 17
-118 12 0 15 22 15 130 l0 130 -35 0 c-25 0 -35 -4 -35 -15z"/>
<path d="M5203 7478 c2 -7 10 -13 18 -13 11 0 15 -24 17 -117 2 -91 6 -117 17
-122 13 -5 15 15 15 129 l0 135 -36 0 c-24 0 -34 -4 -31 -12z"/>
<path d="M5386 7468 c-12 -16 -16 -46 -16 -111 0 -80 2 -90 25 -112 31 -32 58
-32 84 1 17 22 21 41 21 108 0 102 -13 130 -62 134 -28 2 -40 -2 -52 -20z m74
-34 c15 -45 9 -146 -10 -169 -13 -16 -15 -15 -32 5 -35 43 -18 200 22 200 5 0
14 -16 20 -36z"/>
<path d="M5570 7475 c0 -8 7 -15 15 -15 12 0 15 -19 15 -115 0 -108 1 -115 20
-115 19 0 20 7 20 130 l0 130 -35 0 c-24 0 -35 -5 -35 -15z"/>
<path d="M5755 7476 c-15 -11 -20 -30 -23 -85 -6 -95 3 -138 33 -157 36 -24
73 -11 91 31 25 61 14 196 -18 217 -20 12 -62 9 -83 -6z m59 -22 c23 -22 23
-176 0 -194 -12 -11 -18 -10 -32 4 -29 28 -17 206 14 206 1 0 10 -7 18 -16z"/>
<path d="M5935 7479 c-4 -6 2 -13 14 -16 20 -5 21 -12 21 -119 0 -107 1 -114
20 -114 19 0 20 7 20 130 l0 130 -34 0 c-19 0 -38 -5 -41 -11z"/>
<path d="M6309 7473 c-9 -10 -15 -49 -17 -107 -3 -81 -1 -94 18 -119 25 -32
62 -35 89 -8 37 37 41 174 7 226 -20 30 -75 35 -97 8z m81 -112 c0 -83 -8
-105 -35 -99 -25 4 -37 52 -31 122 7 73 21 94 47 70 15 -14 19 -32 19 -93z"/>
<path d="M6490 7479 c0 -6 9 -13 20 -16 19 -5 20 -14 20 -119 0 -95 3 -114 15
-114 13 0 15 21 15 130 l0 130 -35 0 c-19 0 -35 -5 -35 -11z"/>
<path d="M6660 7475 c0 -8 9 -15 20 -15 19 0 20 -7 20 -120 0 -100 3 -120 15
-120 13 0 15 22 15 135 l0 135 -35 0 c-24 0 -35 -5 -35 -15z"/>
<path d="M6852 7482 c-29 -19 -41 -132 -22 -204 12 -43 38 -61 75 -52 38 9 55
52 55 134 0 93 -18 130 -63 130 -17 0 -38 -4 -45 -8z m59 -28 c21 -26 19 -169
-4 -191 -28 -28 -41 -2 -45 86 -5 102 15 145 49 105z"/>
<path d="M4336 7095 c-4 -10 1 -15 14 -15 19 0 20 -7 20 -120 0 -100 3 -120
15 -120 13 0 15 22 15 135 l0 135 -29 0 c-16 0 -31 -6 -35 -15z"/>
<path d="M4505 7101 c-3 -6 4 -15 15 -21 18 -10 20 -20 20 -125 0 -96 3 -115
15 -115 13 0 15 22 15 135 l0 135 -29 0 c-17 0 -32 -4 -36 -9z"/>
<path d="M4670 7095 c0 -8 7 -15 15 -15 13 0 15 -20 15 -120 0 -113 1 -120 20
-120 19 0 20 7 20 135 l0 135 -35 0 c-24 0 -35 -5 -35 -15z"/>
<path d="M4837 7103 c-13 -12 -7 -23 13 -23 19 0 20 -7 20 -120 0 -116 1 -120
21 -120 17 0 20 4 15 23 -3 12 -6 73 -6 135 l0 112 -28 0 c-16 0 -32 -3 -35
-7z"/>
<path d="M5017 7092 c-34 -37 -34 -204 -1 -237 19 -19 64 -19 90 -1 17 13 19
27 19 114 0 84 -3 103 -19 121 -23 26 -67 27 -89 3z m66 -29 c15 -55 17 -81
11 -130 -7 -60 -28 -79 -50 -48 -17 22 -19 147 -4 176 13 24 37 25 43 2z"/>
<path d="M5190 7095 c0 -8 9 -15 20 -15 19 0 20 -7 20 -120 0 -100 3 -120 15
-120 13 0 15 22 15 135 l0 135 -35 0 c-24 0 -35 -5 -35 -15z"/>
<path d="M5360 7096 c0 -7 9 -16 20 -19 19 -5 20 -14 20 -121 0 -96 3 -116 15
-116 13 0 15 22 15 135 l0 135 -35 0 c-23 0 -35 -5 -35 -14z"/>
<path d="M5554 7102 c-24 -16 -34 -54 -34 -129 0 -106 13 -128 70 -128 42 0
46 2 57 35 15 45 16 138 2 179 -15 43 -62 65 -95 43z m55 -36 c8 -9 11 -44 9
-96 -2 -67 -7 -85 -21 -94 -14 -8 -20 -8 -27 4 -11 17 -14 159 -4 184 8 20 28
21 43 2z"/>
<path d="M5720 7099 c0 -6 9 -13 20 -16 19 -5 20 -14 20 -124 0 -99 3 -119 15
-119 13 0 15 22 15 135 l0 135 -35 0 c-19 0 -35 -5 -35 -11z"/>
<path d="M5904 7089 c-16 -17 -19 -37 -19 -108 0 -102 17 -141 63 -141 55 0
72 32 72 138 0 65 -4 84 -21 106 -25 32 -68 35 -95 5z m73 -36 c9 -38 9 -122
0 -155 -9 -35 -42 -38 -51 -5 -11 40 -7 162 6 175 20 20 37 14 45 -15z"/>
<path d="M6090 7095 c0 -8 7 -15 15 -15 13 0 15 -20 15 -120 0 -108 2 -120 18
-120 15 0 17 13 17 135 l0 135 -32 0 c-23 0 -33 -5 -33 -15z"/>
<path d="M6240 7095 c0 -8 9 -15 20 -15 19 0 20 -7 20 -120 0 -100 3 -120 15
-120 13 0 15 22 15 135 l0 135 -35 0 c-24 0 -35 -5 -35 -15z"/>
<path d="M6410 7095 c0 -8 7 -15 15 -15 22 0 28 -41 23 -146 -5 -87 -4 -94 13
-94 18 0 19 10 19 135 l0 135 -35 0 c-24 0 -35 -5 -35 -15z"/>
<path d="M6584 7085 c-22 -34 -22 -186 0 -221 22 -33 79 -34 101 -1 18 28 22
167 7 208 -18 46 -82 54 -108 14z m76 -24 c18 -34 12 -156 -8 -181 -17 -21
-19 -21 -32 -4 -11 12 -15 44 -16 108 -1 89 0 92 22 94 14 1 27 -6 34 -17z"/>
<path d="M4293 6723 c-37 -5 -43 -18 -13 -28 18 -6 20 -15 20 -121 0 -95 3
-114 15 -114 13 0 15 22 15 135 0 74 -1 134 -2 133 -2 0 -18 -3 -35 -5z"/>
<path d="M4619 6711 c-21 -17 -24 -29 -27 -103 -4 -95 7 -134 43 -148 66 -25
102 34 92 154 -5 60 -10 74 -32 94 -32 27 -46 28 -76 3z m61 -30 c17 -32 13
-176 -6 -191 -12 -11 -18 -10 -32 4 -13 13 -17 34 -16 96 1 97 27 141 54 91z"/>
<path d="M4790 6708 c0 -15 5 -18 20 -13 19 6 20 2 20 -114 0 -101 2 -121 15
-121 13 0 15 21 15 133 l0 132 -35 1 c-28 0 -35 -3 -35 -18z"/>
<path d="M4997 6719 c-41 -24 -58 -116 -37 -204 15 -67 62 -84 106 -40 25 25
26 30 22 121 -3 86 -5 98 -27 115 -26 22 -38 23 -64 8z m51 -50 c18 -34 10
-155 -12 -177 -29 -28 -46 8 -46 96 0 105 26 141 58 81z"/>
<path d="M6017 6718 c-35 -28 -49 -130 -27 -209 19 -67 97 -75 120 -13 15 39
12 161 -5 193 -21 41 -56 52 -88 29z m54 -34 c22 -27 19 -169 -4 -191 -17 -17
-19 -17 -33 1 -9 13 -14 45 -14 94 0 98 19 134 51 96z"/>
<path d="M4093 6708 c2 -7 10 -13 18 -13 11 0 15 -25 19 -120 4 -85 9 -121 18
-122 9 -2 12 29 12 132 l0 135 -36 0 c-24 0 -34 -4 -31 -12z"/>
<path d="M4430 6710 c0 -5 7 -10 15 -10 13 0 15 -20 15 -120 0 -113 1 -120 20
-120 19 0 20 7 20 130 l0 130 -35 0 c-19 0 -35 -4 -35 -10z"/>
<path d="M5160 6710 c0 -5 7 -10 15 -10 13 0 15 -20 15 -120 0 -113 1 -120 20
-120 19 0 20 7 20 99 0 140 -5 161 -41 161 -16 0 -29 -4 -29 -10z"/>
<path d="M5330 6710 c0 -5 7 -10 15 -10 13 0 15 -20 15 -120 0 -100 3 -120 15
-120 13 0 15 21 15 130 l0 130 -30 0 c-16 0 -30 -4 -30 -10z"/>
<path d="M5490 6710 c0 -5 6 -10 14 -10 17 0 26 -52 26 -157 0 -67 3 -83 15
-83 13 0 15 21 15 130 l0 130 -35 0 c-19 0 -35 -4 -35 -10z"/>
<path d="M5660 6710 c0 -5 7 -10 15 -10 13 0 15 -20 15 -120 0 -113 1 -120 20
-120 19 0 20 7 20 130 l0 130 -35 0 c-19 0 -35 -4 -35 -10z"/>
<path d="M5830 6710 c0 -5 7 -10 15 -10 13 0 15 -20 15 -120 0 -94 3 -120 14
-120 14 0 26 96 26 207 l0 53 -35 0 c-19 0 -35 -4 -35 -10z"/>
<path d="M4008 6333 c-28 -7 -40 -57 -37 -147 3 -71 8 -89 25 -107 17 -17 28
-20 53 -14 42 9 51 35 51 146 0 76 -3 92 -20 109 -19 19 -37 23 -72 13z m52
-49 c13 -34 13 -150 0 -175 -27 -50 -60 0 -60 91 0 69 13 110 35 110 9 0 20
-12 25 -26z"/>
<path d="M4373 6332 c-36 -4 -46 -22 -13 -22 19 0 20 -7 20 -120 0 -108 2
-120 18 -120 15 0 17 12 15 131 -1 72 -3 132 -5 133 -2 0 -18 0 -35 -2z"/>
<path d="M4535 6315 c-23 -22 -25 -32 -25 -113 0 -75 3 -93 21 -116 23 -29 55
-33 85 -12 16 12 20 29 23 100 3 96 -2 127 -25 150 -22 23 -51 20 -79 -9z m68
-45 c13 -52 4 -147 -17 -168 -16 -16 -18 -16 -32 2 -16 23 -19 141 -4 181 14
37 41 29 53 -15z"/>
<path d="M4715 6332 c-10 -10 -5 -22 10 -22 13 0 15 -20 15 -120 0 -113 1
-120 20 -120 19 0 20 7 20 133 l0 132 -30 1 c-16 1 -32 -1 -35 -4z"/>
<path d="M4899 6321 c-19 -16 -24 -30 -27 -90 -6 -95 3 -138 33 -157 60 -39
105 15 105 124 0 120 -48 174 -111 123z m61 -30 c15 -29 13 -164 -4 -186 -12
-16 -16 -17 -30 -6 -20 17 -23 180 -4 199 17 17 26 15 38 -7z"/>
<path d="M5110 6333 c-45 -15 -45 -15 -22 -24 21 -8 22 -13 22 -124 0 -96 3
-115 15 -115 13 0 15 22 15 135 0 74 -3 135 -7 134 -5 0 -15 -3 -23 -6z"/>
<path d="M5260 6313 c-19 -25 -21 -38 -18 -121 3 -84 5 -96 27 -113 28 -23 50
-24 77 -5 16 12 20 29 22 113 3 88 2 101 -18 126 -28 35 -62 35 -90 0z m70
-22 c16 -30 13 -164 -4 -187 -14 -18 -16 -18 -33 -1 -21 21 -30 137 -14 180
12 32 36 35 51 8z"/>
<path d="M5445 6331 c-10 -10 -4 -19 17 -24 21 -6 21 -9 15 -121 -7 -112 -6
-116 13 -116 19 0 20 7 20 135 l0 135 -30 -2 c-17 -1 -33 -4 -35 -7z"/>
<path d="M5620 6324 c0 -6 7 -14 15 -18 12 -4 15 -27 15 -121 0 -96 3 -115 15
-115 13 0 15 21 15 129 l0 129 -30 4 c-19 3 -30 0 -30 -8z"/>
<path d="M5800 6325 c0 -8 7 -15 15 -15 13 0 15 -20 15 -120 0 -113 1 -120 20
-120 19 0 20 7 20 135 l0 135 -35 0 c-24 0 -35 -5 -35 -15z"/>
<path d="M5987 6333 c-12 -11 -8 -21 13 -26 19 -5 20 -14 20 -121 0 -96 3
-116 15 -116 13 0 15 22 15 135 l0 135 -28 0 c-16 0 -32 -3 -35 -7z"/>
<path d="M4170 6320 c0 -5 7 -10 15 -10 22 0 28 -43 21 -146 -6 -90 -6 -94 14
-94 19 0 20 6 20 130 l0 130 -35 0 c-19 0 -35 -4 -35 -10z"/>
 </g>
 <g fill="#000000">
<path d="M3960 5963 c-85 -5 -111 -14 -152 -51 -83 -75 -78 8 -78 -1104 0
-544 2 -988 5 -988 3 0 23 12 45 26 l40 27 0 954 c0 1041 -3 988 57 1029 27
18 65 19 1168 19 1071 0 1142 -1 1172 -18 67 -36 63 32 63 -1120 l0 -1044 45
-32 45 -32 0 1083 0 1084 -25 51 c-33 65 -84 101 -161 113 -51 8 -2084 11
-2224 3z"/>
<path d="M4025 5750 c-31 -12 -64 -53 -75 -91 -6 -19 -10 -102 -10 -184 0
-126 3 -157 18 -186 17 -33 17 -38 3 -59 -13 -19 -16 -57 -16 -205 0 -158 2
-184 18 -209 18 -27 18 -28 0 -48 -16 -17 -18 -42 -21 -195 -3 -156 -1 -178
16 -211 19 -36 19 -38 1 -72 -16 -30 -19 -58 -19 -192 0 -172 -2 -168 59 -147
l31 11 0 137 c0 107 3 141 16 159 l15 22 989 0 989 0 15 -22 c13 -18 16 -56
16 -210 l0 -187 37 -26 c21 -14 41 -25 45 -25 5 0 8 99 8 220 0 173 -3 228
-15 257 -13 31 -13 40 0 80 11 31 15 87 15 199 0 115 -4 164 -15 191 -13 31
-13 40 0 80 22 63 21 328 -1 382 -14 36 -14 42 0 70 24 46 23 352 -2 401 -37
74 32 70 -1092 69 -553 0 -1014 -4 -1025 -9z m2030 -103 c22 -32 22 -293 -1
-325 l-15 -22 -989 0 -989 0 -15 22 c-23 33 -23 293 0 326 l15 22 990 -1 989
0 15 -22z m3 -464 c12 -26 9 -320 -4 -333 -7 -7 -330 -12 -996 -16 l-986 -6
-21 21 c-19 19 -21 32 -21 167 0 81 5 154 10 165 10 19 32 19 1010 19 942 0
1000 -1 1008 -17z m-2 -468 c14 -21 16 -48 12 -171 -3 -130 -5 -147 -23 -160
-16 -12 -172 -14 -1001 -14 l-983 0 -15 22 c-13 18 -16 52 -16 163 0 111 3
145 16 163 l15 22 989 0 990 0 16 -25z"/>
<path d="M4190 5523 c-52 -66 41 -152 100 -93 46 46 15 120 -50 120 -19 0 -36
-9 -50 -27z"/>
<path d="M5464 5506 c-3 -8 -4 -23 -2 -33 3 -11 6 -6 9 15 6 34 2 42 -7 18z"/>
<path d="M5632 5480 c0 -14 2 -19 5 -12 2 6 2 18 0 25 -3 6 -5 1 -5 -13z"/>
<path d="M5751 5474 c0 -11 3 -14 6 -6 3 7 2 16 -1 19 -3 4 -6 -2 -5 -13z"/>
<path d="M4212 5080 c-53 -22 -46 -104 11 -124 77 -27 125 89 52 122 -30 14
-32 14 -63 2z"/>
<path d="M5470 5046 c-14 -18 -10 -58 8 -64 11 -3 11 -1 0 17 -10 17 -10 25 0
41 14 23 10 27 -8 6z"/>
<path d="M5615 5014 c0 -38 2 -42 13 -27 6 9 12 24 12 34 0 9 -6 21 -12 27
-10 8 -13 0 -13 -34z"/>
<path d="M5749 5039 c-12 -23 1 -69 21 -69 6 0 5 10 -2 26 -9 20 -9 30 0 45 7
11 8 19 2 19 -5 0 -14 -10 -21 -21z"/>
<path d="M5911 5018 c0 -16 -5 -28 -11 -28 -5 0 -10 -5 -10 -12 0 -8 5 -7 16
4 9 9 14 26 11 39 -4 22 -4 22 -6 -3z"/>
<path d="M4212 4620 c-12 -5 -27 -21 -32 -36 -19 -50 11 -94 64 -94 65 0 91
79 40 119 -29 23 -38 24 -72 11z"/>
<path d="M5472 4588 c-25 -25 -8 -78 25 -78 8 0 6 7 -7 20 -25 25 -26 46 -2
59 9 6 12 11 7 11 -6 0 -16 -5 -23 -12z"/>
<path d="M5613 4583 c18 -20 15 -50 -7 -65 -7 -5 -7 -8 2 -8 7 0 18 12 24 26
13 28 3 54 -23 62 -10 4 -9 -1 4 -15z"/>
<path d="M5749 4579 c-14 -26 3 -69 26 -69 15 0 15 1 1 16 -19 18 -21 45 -4
62 9 9 9 12 0 12 -6 0 -16 -10 -23 -21z"/>
<path d="M5890 4596 c0 -2 8 -10 18 -17 15 -13 16 -12 3 4 -13 16 -21 21 -21
13z"/>
<path d="M5911 4553 c-1 -6 -8 -19 -17 -27 -8 -9 -11 -16 -6 -16 15 0 34 28
29 42 -4 9 -6 9 -6 1z"/>
<path d="M4190 4133 c-36 -46 -10 -103 49 -105 41 -1 71 27 71 67 0 65 -79 90
-120 38z"/>
<path d="M5478 4129 c-22 -12 -23 -52 -3 -69 14 -11 14 -10 5 16 -10 25 -8 31
10 46 24 19 16 24 -12 7z"/>
<path d="M5613 4126 c20 -20 21 -30 6 -59 -11 -21 -11 -21 7 -5 14 14 16 23 8
45 -5 14 -16 29 -24 31 -11 4 -10 1 3 -12z"/>
<path d="M5897 4130 c6 -8 13 -26 16 -40 l4 -25 2 26 c0 15 -7 33 -16 40 -16
12 -17 12 -6 -1z"/>
<path d="M5750 4110 c-8 -14 -8 -26 0 -40 15 -28 17 -25 12 11 -3 20 0 34 9
40 10 6 10 9 2 9 -7 0 -17 -9 -23 -20z"/>
<path d="M4621 3930 c-283 -12 -522 -43 -656 -87 -104 -33 -165 -73 -293 -191
-219 -202 -360 -313 -436 -342 -26 -10 -161 -20 -581 -45 -523 -31 -720 -46
-755 -55 -49 -13 -107 -64 -135 -119 -13 -26 -40 -105 -61 -177 -31 -105 -38
-146 -38 -219 -1 -80 2 -97 28 -149 35 -72 81 -125 122 -142 29 -12 132 -20
669 -48 50 -3 142 -8 205 -12 131 -7 135 -6 258 81 35 25 67 45 72 45 5 0 14
-19 21 -42 27 -104 110 -214 197 -265 135 -79 319 -83 447 -8 81 48 195 194
195 250 0 36 19 11 25 -32 10 -75 24 -109 48 -121 28 -14 2714 -37 2749 -23
31 12 56 46 159 214 l84 138 6 -83 c8 -100 34 -171 89 -243 80 -104 175 -154
303 -162 227 -15 412 119 460 333 l13 58 20 -39 c24 -51 53 -65 134 -65 37 0
76 -7 90 -15 29 -17 167 -20 219 -5 51 14 88 55 101 111 9 36 22 57 47 78 80
66 96 139 44 192 -18 17 -40 29 -56 29 -17 0 -25 4 -21 13 2 6 12 36 22 66 41
135 -26 325 -135 380 -26 14 -76 22 -171 30 -131 10 -903 59 -1300 82 -176 10
-199 13 -240 35 -46 25 -314 218 -529 381 -145 110 -221 149 -316 163 -92 14
-843 21 -1104 10z m904 -90 c94 -6 193 -15 221 -21 67 -13 152 -66 387 -242
105 -79 225 -166 266 -193 85 -56 85 -57 -63 -73 l-90 -9 -141 131 c-210 198
-335 306 -369 324 -26 14 -85 17 -371 21 -454 5 -817 -9 -906 -37 -113 -36
-198 -109 -385 -332 l-113 -136 -283 4 c-156 3 -287 5 -291 6 -4 1 41 41 100
89 59 48 164 139 233 203 91 85 144 126 195 151 78 38 238 77 384 94 222 26
933 37 1226 20z m147 -162 c8 -8 34 -85 57 -178 23 -91 44 -172 47 -181 4 -15
-13 -18 -148 -23 -84 -3 -465 -8 -847 -11 l-694 -6 32 43 c74 101 213 248 270
286 107 71 178 78 822 80 343 2 449 -1 461 -10z m217 -161 c58 -56 134 -128
169 -160 l63 -57 -133 0 -134 0 -46 160 c-25 88 -41 160 -35 160 5 0 57 -46
116 -103z m961 -267 c231 -12 873 -53 1176 -74 233 -16 239 -19 281 -104 44
-89 37 -224 -15 -284 -12 -15 -32 -18 -103 -18 -85 0 -89 -1 -106 -27 -11 -17
-23 -71 -33 -152 l-15 -126 -45 -3 c-25 -1 -51 2 -59 7 -7 4 -21 49 -32 99
-29 143 -91 246 -171 288 -56 29 -160 44 -308 44 -340 0 -421 -55 -656 -442
l-89 -147 -197 -1 c-182 0 -198 1 -198 18 0 9 7 86 17 170 l17 152 243 0 c209
0 243 2 243 15 0 8 -1 16 -2 17 -2 1 -110 4 -242 7 l-238 6 1 120 c1 66 3 120
4 122 2 1 436 7 966 12 530 6 966 13 969 16 22 21 -90 25 -976 31 l-962 7 -6
36 c-3 20 -11 67 -19 106 -7 38 -12 72 -10 74 9 8 302 48 330 45 17 -2 122 -8
235 -14z m-630 -67 c17 -61 34 -173 27 -180 -4 -3 -348 -8 -765 -11 l-759 -5
9 69 c5 38 13 86 19 107 l10 37 267 1 c266 2 1059 13 1139 17 41 2 42 1 53
-35z m-2097 12 c312 0 567 -2 567 -5 -1 -3 -7 -34 -15 -70 -8 -36 -14 -79 -15
-96 l0 -31 -1335 -6 c-1099 -6 -1342 -9 -1369 -21 -20 -8 -39 -27 -50 -50 -23
-49 -33 -160 -16 -191 28 -53 25 -53 725 -61 358 -4 646 -8 640 -10 -5 -1 -55
-17 -110 -34 -122 -40 -189 -72 -280 -139 -80 -59 -69 -57 -315 -41 -85 6
-272 17 -415 24 -160 9 -271 19 -288 27 -17 8 -37 33 -56 71 -48 94 -48 125
-6 293 47 189 63 226 110 255 36 22 59 25 434 47 218 12 491 29 606 37 142 9
276 12 415 8 113 -4 460 -7 773 -7z m2131 -372 c-3 -65 -8 -120 -10 -122 -6
-7 -1504 16 -1512 23 -4 4 -9 52 -10 107 l-4 99 494 3 c271 1 618 3 771 5
l278 2 -7 -117z m-1596 -2 l3 -103 -573 7 c-315 3 -919 10 -1341 15 -630 6
-771 10 -782 21 -11 12 -12 25 -2 74 l12 60 230 7 c206 7 2153 27 2365 24 l85
-1 3 -104z m2887 -12 c57 -16 137 -100 160 -169 41 -124 14 -257 -71 -349
-139 -150 -340 -157 -491 -18 -130 120 -141 336 -24 469 17 19 43 41 58 47 66
26 298 39 368 20z m859 -125 c25 -10 19 -23 -32 -69 -32 -29 -53 -59 -66 -94
-26 -75 -36 -81 -118 -81 -69 0 -70 0 -64 24 3 13 9 63 12 112 4 49 11 95 17
102 10 13 220 18 251 6z m-4099 -34 l362 0 5 -75 c4 -58 11 -83 31 -113 49
-75 11 -72 802 -72 l706 0 -3 -35 -3 -36 -830 1 c-456 0 -952 3 -1101 7 l-272
6 -6 51 c-14 110 -83 199 -189 246 -26 12 -47 24 -47 27 0 3 41 3 92 -1 50 -3
254 -6 453 -6z m1931 -77 c-4 -43 -10 -88 -13 -101 l-5 -23 -707 7 c-567 5
-710 9 -728 20 -23 15 -38 54 -47 127 l-6 47 757 0 756 0 -7 -77z m-2626 9
l55 -7 -4 -45 c-6 -96 -79 -178 -173 -195 -96 -18 -203 67 -223 176 -8 46 -4
48 99 64 90 14 164 16 246 7z m169 -43 c31 -19 33 -23 28 -61 -8 -62 -63 -163
-109 -203 -76 -65 -121 -80 -233 -80 -118 0 -171 20 -243 92 -45 46 -98 147
-104 198 -3 26 1 31 32 41 39 13 34 19 59 -71 15 -56 65 -121 118 -152 34 -20
63 -27 119 -31 99 -6 148 13 212 82 50 55 72 107 72 170 0 42 3 43 49 15z"/>
<path d="M4811 3101 c-8 -15 -7 -23 5 -35 17 -17 135 -21 224 -8 40 6 45 10
45 32 l0 25 -132 3 c-122 2 -133 1 -142 -17z"/>
<path d="M7327 2779 c-54 -13 -87 -32 -130 -76 -53 -52 -69 -86 -74 -158 -6
-74 8 -129 47 -183 86 -119 275 -137 388 -38 99 87 110 255 23 365 -56 71
-168 111 -254 90z m167 -102 c49 -38 76 -94 76 -157 0 -63 -27 -119 -76 -157
-30 -22 -49 -28 -103 -31 -60 -3 -71 -1 -114 27 -120 77 -113 264 12 332 55
30 156 23 205 -14z"/>
<ellipse cx="7910" cy="3090" rx="92" ry="58" fill="#ef4444"/>
<ellipse cx="7910" cy="3090" rx="48" ry="30" fill="#fca5a5"/>
</g>
</g>
</svg>
